HIERARCHY
ROOT Model
{
	OFFSET 0 0 0
	CHANNELS 6 Xposition Yposition Zposition Zrotation Xrotation Yrotation
	JOINT Model1
	{
		OFFSET 0 -2.25479 2.99384
		CHANNELS 3 Zrotation Xrotation Yrotation
		JOINT Model2
		{
			OFFSET 12.111 0 0
			CHANNELS 3 Zrotation Xrotation Yrotation
			JOINT Model3
			{
				OFFSET 11.5502 0 0
				CHANNELS 3 Zrotation Xrotation Yrotation
				JOINT Model4
				{
					OFFSET 11.781 0 0
					CHANNELS 3 Zrotation Xrotation Yrotation
					JOINT Model5
					{
						OFFSET 20.0601 0 0
						CHANNELS 3 Zrotation Xrotation Yrotation
						JOINT Model6
						{
							OFFSET 11.1962 0 0
							CHANNELS 3 Zrotation Xrotation Yrotation
							End Site
							{
								OFFSET 0 0 0
							}
						}
					}
					JOINT Model7
					{
						OFFSET 10.8223 0.417534 3.51114
						CHANNELS 3 Zrotation Xrotation Yrotation
						JOINT Model8
						{
							OFFSET -6.07944 0 0
							CHANNELS 3 Zrotation Xrotation Yrotation
							JOINT Model9
							{
								OFFSET -0.277405 10.39 -0.051239
								CHANNELS 3 Zrotation Xrotation Yrotation
								JOINT Model10
								{
									OFFSET -3.43909 -0.282043 1.86679
									CHANNELS 3 Zrotation Xrotation Yrotation
									JOINT Model11
									{
										OFFSET 13.0269 0 0
										CHANNELS 3 Zrotation Xrotation Yrotation
										JOINT Model12
										{
											OFFSET 10.8866 0 0
											CHANNELS 3 Zrotation Xrotation Yrotation
											JOINT Model13
											{
												OFFSET 16.7317 0 0
												CHANNELS 3 Zrotation Xrotation Yrotation
												JOINT Model14
												{
													OFFSET 11.8292 0 0
													CHANNELS 3 Zrotation Xrotation Yrotation
													JOINT Model15
													{
														OFFSET 4.82751 -3.73566 -0.836517
														CHANNELS 3 Zrotation Xrotation Yrotation
														JOINT Model16
														{
															OFFSET 3.75311 -0.0582886 -0.0186462
															CHANNELS 3 Zrotation Xrotation Yrotation
															JOINT Model17
															{
																OFFSET 2.88689 0.0192337 0.014801
																CHANNELS 3 Zrotation Xrotation Yrotation
																End Site
																{
																	OFFSET 0 0 0
																}
															}
														}
													}
													JOINT Model18
													{
														OFFSET 9.72197 -3.06458 0.23877
														CHANNELS 3 Zrotation Xrotation Yrotation
														JOINT Model19
														{
															OFFSET 4.61131 0 0
															CHANNELS 3 Zrotation Xrotation Yrotation
															JOINT Model20
															{
																OFFSET 2.8969 -7.62939e-006 0
																CHANNELS 3 Zrotation Xrotation Yrotation
																End Site
																{
																	OFFSET 0 0 0
																}
															}
														}
													}
													JOINT Model21
													{
														OFFSET 9.54431 -0.745064 0.588928
														CHANNELS 3 Zrotation Xrotation Yrotation
														JOINT Model22
														{
															OFFSET 5.33978 0 0
															CHANNELS 3 Zrotation Xrotation Yrotation
															JOINT Model23
															{
																OFFSET 3.03619 7.62939e-006 0
																CHANNELS 3 Zrotation Xrotation Yrotation
																End Site
																{
																	OFFSET 0 0 0
																}
															}
														}
													}
													JOINT Model24
													{
														OFFSET 9.47758 1.51286 0.485107
														CHANNELS 3 Zrotation Xrotation Yrotation
														JOINT Model25
														{
															OFFSET 4.96136 7.62939e-006 0
															CHANNELS 3 Zrotation Xrotation Yrotation
															JOINT Model26
															{
																OFFSET 2.51965 0 0
																CHANNELS 3 Zrotation Xrotation Yrotation
																End Site
																{
																	OFFSET 0 0 0
																}
															}
														}
													}
													JOINT Model27
													{
														OFFSET 9.34247 3.34117 -0.239288
														CHANNELS 3 Zrotation Xrotation Yrotation
														JOINT Model28
														{
															OFFSET 3.28259 2.28882e-005 0
															CHANNELS 3 Zrotation Xrotation Yrotation
															JOINT Model29
															{
																OFFSET 2.1292 0 0
																CHANNELS 3 Zrotation Xrotation Yrotation
																End Site
																{
																	OFFSET 0 0 0
																}
															}
														}
													}
												}
											}
										}
									}
								}
							}
						}
					}
					JOINT Model30
					{
						OFFSET 10.8223 0.4179 -3.51108
						CHANNELS 3 Zrotation Xrotation Yrotation
						JOINT Model31
						{
							OFFSET 6.07944 0 0
							CHANNELS 3 Zrotation Xrotation Yrotation
							JOINT Model32
							{
								OFFSET 0.277405 -10.39 0.051239
								CHANNELS 3 Zrotation Xrotation Yrotation
								JOINT Model33
								{
									OFFSET 3.43909 0.282043 -1.86679
									CHANNELS 3 Zrotation Xrotation Yrotation
									JOINT Model34
									{
										OFFSET -13.0269 0 0
										CHANNELS 3 Zrotation Xrotation Yrotation
										JOINT Model35
										{
											OFFSET -10.8866 0 0
											CHANNELS 3 Zrotation Xrotation Yrotation
											JOINT Model36
											{
												OFFSET -16.7317 0 0
												CHANNELS 3 Zrotation Xrotation Yrotation
												JOINT Model37
												{
													OFFSET -11.8292 0 0
													CHANNELS 3 Zrotation Xrotation Yrotation
													JOINT Model38
													{
														OFFSET -4.82751 3.73566 0.836517
														CHANNELS 3 Zrotation Xrotation Yrotation
														JOINT Model39
														{
															OFFSET -3.75311 0.0582886 0.0186462
															CHANNELS 3 Zrotation Xrotation Yrotation
															JOINT Model40
															{
																OFFSET -2.88687 -0.0192337 -0.014801
																CHANNELS 3 Zrotation Xrotation Yrotation
																End Site
																{
																	OFFSET 0 0 0
																}
															}
														}
													}
													JOINT Model41
													{
														OFFSET -9.72198 3.06459 -0.23877
														CHANNELS 3 Zrotation Xrotation Yrotation
														JOINT Model42
														{
															OFFSET -4.6113 0 0
															CHANNELS 3 Zrotation Xrotation Yrotation
															JOINT Model43
															{
																OFFSET -2.89691 0 0
																CHANNELS 3 Zrotation Xrotation Yrotation
																End Site
																{
																	OFFSET 0 0 0
																}
															}
														}
													}
													JOINT Model44
													{
														OFFSET -9.54431 0.745064 -0.588928
														CHANNELS 3 Zrotation Xrotation Yrotation
														JOINT Model45
														{
															OFFSET -5.33978 0 0
															CHANNELS 3 Zrotation Xrotation Yrotation
															JOINT Model46
															{
																OFFSET -3.03619 -1.52588e-005 0
																CHANNELS 3 Zrotation Xrotation Yrotation
																End Site
																{
																	OFFSET 0 0 0
																}
															}
														}
													}
													JOINT Model47
													{
														OFFSET -9.4776 -1.51286 -0.485107
														CHANNELS 3 Zrotation Xrotation Yrotation
														JOINT Model48
														{
															OFFSET -4.96136 -1.52588e-005 0
															CHANNELS 3 Zrotation Xrotation Yrotation
															JOINT Model49
															{
																OFFSET -2.51965 0 0
																CHANNELS 3 Zrotation Xrotation Yrotation
																End Site
																{
																	OFFSET 0 0 0
																}
															}
														}
													}
													JOINT Model50
													{
														OFFSET -9.34247 -3.34118 0.239288
														CHANNELS 3 Zrotation Xrotation Yrotation
														JOINT Model51
														{
															OFFSET -3.28259 -2.28882e-005 0
															CHANNELS 3 Zrotation Xrotation Yrotation
															JOINT Model52
															{
																OFFSET -2.12921 0 0
																CHANNELS 3 Zrotation Xrotation Yrotation
																End Site
																{
																	OFFSET 0 0 0
																}
															}
														}
													}
												}
											}
										}
									}
								}
							}
						}
					}
				}
			}
		}
	}
	JOINT Model53
	{
		OFFSET 4.38025 -2.14632 -1.11517
		CHANNELS 3 Zrotation Xrotation Yrotation
		JOINT Model54
		{
			OFFSET 0 0 4.94998
			CHANNELS 3 Zrotation Xrotation Yrotation
			JOINT Model55
			{
				OFFSET 18.5642 0 0
				CHANNELS 3 Zrotation Xrotation Yrotation
				JOINT Model56
				{
					OFFSET 21.2884 0 0
					CHANNELS 3 Zrotation Xrotation Yrotation
					JOINT Model57
					{
						OFFSET 30.261 0 0
						CHANNELS 3 Zrotation Xrotation Yrotation
						JOINT Model58
						{
							OFFSET 11.7259 0 0
							CHANNELS 3 Zrotation Xrotation Yrotation
							JOINT Model59
							{
								OFFSET 10.682 0 0
								CHANNELS 3 Zrotation Xrotation Yrotation
								End Site
								{
									OFFSET 0 0 0
								}
							}
						}
					}
				}
			}
		}
	}
	JOINT Model60
	{
		OFFSET -4.38025 -2.14632 -1.11517
		CHANNELS 3 Zrotation Xrotation Yrotation
		JOINT Model61
		{
			OFFSET 0 0 -4.94998
			CHANNELS 3 Zrotation Xrotation Yrotation
			JOINT Model62
			{
				OFFSET -18.5642 0 0
				CHANNELS 3 Zrotation Xrotation Yrotation
				JOINT Model63
				{
					OFFSET -21.2884 0 0
					CHANNELS 3 Zrotation Xrotation Yrotation
					JOINT Model64
					{
						OFFSET -30.261 0 0
						CHANNELS 3 Zrotation Xrotation Yrotation
						JOINT Model65
						{
							OFFSET -11.7259 0 0
							CHANNELS 3 Zrotation Xrotation Yrotation
							JOINT Model66
							{
								OFFSET -10.682 0 0
								CHANNELS 3 Zrotation Xrotation Yrotation
								End Site
								{
									OFFSET 0 0 0
								}
							}
						}
					}
				}
			}
		}
	}
}
MOTION
Frames: 4
Frame Time: 0.033333
-661.342 173.728 -756.732 86.1982 -47.5485 87.0301 -180 4.29621e-031 -90 0.818723 -0.112692 -0.715455 1.63597 -0.236024 -1.42923 1.63597 -0.235587 -1.42924 0.32135 -1.43572 9.69205 10.1651 0.553365 -7.20765 120.092 75.5343 58.4939 -15.9428 1.40869 3.84924 -167.277 84.4999 48.8109 166.73 8.91563 19.2492 -3.2182e-006 31.4575 3.71483e-005 -0.748062 -11.4841 -3.56606 -1.59698e-006 -17.1962 -2.17884e-006 6.73691 0.236783 4.0213 -72.0648 39.0385 39.3397 33.3638 2.10362 14.835 0.588947 0.308273 6.35287 -99.6409 81.413 100.35 -0.0181409 2.77842e-005 -0.117315 -0.124139 0.00241113 -0.799296 -79.8382 79.5773 80.5374 -0.000225779 -0.000220917 2.21973e-005 -0.000956229 0.000122902 -2.73169e-005 -66.7416 80.4058 67.2171 -0.000437134 1.5951e-005 -2.73178e-005 -0.000136607 -0.000109284 -5.46375e-005 -6.42159 81.2158 8.01779 -0.000218568 1.69076e-005 0.000212143 0.000901581 -0.000184802 -0.000218561 -59.9282 75.5373 58.5147 -13.082 -0.855585 2.27704 -167.277 84.4999 48.8109 171.49 -8.19487 31.2891 6.80259e-006 0.234616 2.9217e-005 -1.40168 13.6649 -0.205036 -8.50101e-006 20.528 4.05014e-006 -0.153864 0.00380548 -2.83334 -72.0648 39.0385 39.3397 33.3638 2.10361 14.835 0.588946 0.308273 6.35287 -99.6409 81.413 100.35 -0.0181409 3.00606e-005 -0.117315 -0.124139 0.00241111 -0.799296 -79.8382 79.5773 80.5374 -0.00026064 -0.000218584 2.35728e-005 -0.000956218 0.000122973 -2.73175e-005 -66.7416 80.4058 67.2171 -0.000437126 1.48637e-005 -2.73192e-005 -0.000136595 -0.000109307 -5.46394e-005 -6.42159 81.2158 8.01779 -0.00021856 1.95606e-005 0.000212295 0.000901591 -0.00019127 -0.000218569 0.000811311 0.56661 89.91 -19.3478 -2.54626 -6.999 8.3247e-008 0.224343 2.45495e-010 39.8675 -1.43156 -0.0937497 -6.90824e-008 -2.22236 -6.1106e-008 -75.9212 -4.18789 0.712439 -35.4947 4.60956e-007 1.90333e-007 -180 -0.566579 -90.09 -19.5324 -5.25503 -11.7936 -3.97232e-007 -1.15435 -9.55326e-009 36.1267 -2.58914 -1.92357 2.92676e-007 -3.95432 -2.42248e-007 -67.4669 -8.84753 3.91837 -35.4947 2.80288e-007 2.09224e-007 
-661.353 173.738 -756.735 86.1936 -47.5752 87.0423 -180 4.29621e-031 -90 0.809295 -0.111174 -0.709781 1.61714 -0.23279 -1.41792 1.61714 -0.232353 -1.41794 0.308561 -1.40784 9.69984 10.2083 0.58015 -7.23876 120.092 75.5343 58.4939 -15.9717 1.3815 3.84257 -167.277 84.4999 48.8109 166.74 8.91419 19.2237 -3.22003e-006 31.4599 3.71493e-005 -0.734248 -11.4524 -3.50943 -1.59503e-006 -17.1474 -2.17827e-006 6.75093 0.23429 3.97071 -72.0648 39.0385 39.3397 33.3638 2.10362 14.835 0.588947 0.308273 6.35287 -99.6409 81.413 100.35 -0.0181409 2.77842e-005 -0.117315 -0.124139 0.00241113 -0.799296 -79.8382 79.5773 80.5374 -0.000225779 -0.000220917 2.21973e-005 -0.000956229 0.000122902 -2.73169e-005 -66.7416 80.4058 67.2171 -0.000437134 1.5951e-005 -2.73178e-005 -0.000136607 -0.000109284 -5.46375e-005 -6.42159 81.2158 8.01779 -0.000218568 1.69076e-005 0.000212143 0.000901581 -0.000184802 -0.000218561 -59.9282 75.5373 58.5147 -13.0689 -0.867196 2.26961 -167.277 84.4999 48.8109 171.51 -8.19173 31.2857 6.80267e-006 0.234445 2.9217e-005 -1.40054 13.6942 -0.205783 -8.50433e-006 20.5721 4.05131e-006 -0.141298 0.00350156 -2.83886 -72.0648 39.0385 39.3397 33.3638 2.10361 14.835 0.588946 0.308273 6.35287 -99.6409 81.413 100.35 -0.0181409 3.00606e-005 -0.117315 -0.124139 0.00241111 -0.799296 -79.8382 79.5773 80.5374 -0.00026064 -0.000218584 2.35728e-005 -0.000956218 0.000122973 -2.73175e-005 -66.7416 80.4058 67.2171 -0.000437126 1.48637e-005 -2.73192e-005 -0.000136595 -0.000109307 -5.46394e-005 -6.42159 81.2158 8.01779 -0.00021856 1.95606e-005 0.000212295 0.000901591 -0.00019127 -0.000218569 0.000811311 0.56661 89.91 -19.3419 -2.56789 -7.02194 8.3247e-008 0.205473 2.45495e-010 39.8409 -1.42221 -0.112096 -6.90674e-008 -2.20829 -6.11054e-008 -75.9094 -4.1881 0.713432 -35.4947 2.81661e-006 7.78505e-008 -180 -0.566579 -90.09 -19.5333 -5.27447 -11.8047 -3.97235e-007 -1.17751 -9.55334e-009 36.0867 -2.54859 -1.88645 2.92935e-007 -3.89328 -2.4223e-007 -67.4483 -8.79536 3.89243 -35.4947 2.62406e-007 1.95568e-007 
-661.384 173.765 -756.741 86.1803 -47.6528 87.0777 -180 4.29621e-031 -90 0.781986 -0.10677 -0.693306 1.56262 -0.223422 -1.38509 1.56262 -0.222985 -1.38511 0.271555 -1.32701 9.7222 10.3334 0.657639 -7.32839 120.092 75.5343 58.4939 -16.0553 1.30261 3.82304 -167.277 84.4999 48.8109 166.768 8.90993 19.1501 -3.22523e-006 31.4668 3.7152e-005 -0.694645 -11.3603 -3.34567 -1.58942e-006 -17.0061 -2.17662e-006 6.792 0.227055 3.82488 -72.0648 39.0385 39.3397 33.3638 2.10362 14.835 0.588947 0.308273 6.35287 -99.6409 81.413 100.35 -0.0181409 2.77842e-005 -0.117315 -0.124139 0.00241113 -0.799296 -79.8382 79.5773 80.5374 -0.000225779 -0.000220917 2.21973e-005 -0.000956229 0.000122902 -2.73169e-005 -66.7416 80.4058 67.2171 -0.000437134 1.5951e-005 -2.73178e-005 -0.000136607 -0.000109284 -5.46375e-005 -6.42159 81.2158 8.01779 -0.000218568 1.69076e-005 0.000212143 0.000901581 -0.000184802 -0.000218561 -59.9282 75.5373 58.5147 -13.0299 -0.900598 2.24804 -167.277 84.4999 48.8109 171.566 -8.18247 31.2768 6.80292e-006 0.233959 2.9217e-005 -1.39723 13.7792 -0.207955 -8.51397e-006 20.6996 4.05471e-006 -0.104574 0.00260599 -2.85464 -72.0648 39.0385 39.3397 33.3638 2.10361 14.835 0.588946 0.308273 6.35287 -99.6409 81.413 100.35 -0.0181409 3.00606e-005 -0.117315 -0.124139 0.00241111 -0.799296 -79.8382 79.5773 80.5374 -0.00026064 -0.000218584 2.35728e-005 -0.000956218 0.000122973 -2.73175e-005 -66.7416 80.4058 67.2171 -0.000437126 1.48637e-005 -2.73192e-005 -0.000136595 -0.000109307 -5.46394e-005 -6.42159 81.2158 8.01779 -0.00021856 1.95606e-005 0.000212295 0.000901591 -0.00019127 -0.000218569 0.000811311 0.56661 89.91 -19.3252 -2.63057 -7.08855 8.32473e-008 0.150855 2.45494e-010 39.7647 -1.39513 -0.165093 -6.90239e-008 -2.16753 -6.11038e-008 -75.8757 -4.18891 0.716372 -35.4947 9.68116e-006 -2.58147e-007 -180 -0.566579 -90.09 -19.5358 -5.33096 -11.8381 -3.97247e-007 -1.24406 -9.55358e-009 35.9713 -2.43069 -1.77561 2.93686e-007 -3.71588 -2.4218e-007 -67.3945 -8.64303 3.8165 -35.4947 2.10549e-007 1.55967e-007 
-661.434 173.807 -756.752 86.1587 -47.7769 87.1343 -180 4.29621e-031 -90 0.738226 -0.0997318 -0.666773 1.47523 -0.208476 -1.33221 1.47523 -0.208039 -1.33222 0.213363 -1.19747 9.75799 10.533 0.781375 -7.47145 120.092 75.5343 58.4939 -16.1885 1.17759 3.79197 -167.277 84.4999 48.8109 166.812 8.90255 19.033 -3.23282e-006 31.4768 3.7156e-005 -0.632444 -11.2122 -3.0842 -1.58041e-006 -16.7792 -2.174e-006 6.85937 0.215338 3.59195 -72.0648 39.0385 39.3397 33.3638 2.10362 14.835 0.588947 0.308273 6.35287 -99.6409 81.413 100.35 -0.0181409 2.77842e-005 -0.117315 -0.124139 0.00241113 -0.799296 -79.8382 79.5773 80.5374 -0.000225779 -0.000220917 2.21973e-005 -0.000956229 0.000122902 -2.73169e-005 -66.7416 80.4058 67.2171 -0.000437134 1.5951e-005 -2.73178e-005 -0.000136607 -0.000109284 -5.46375e-005 -6.42159 81.2158 8.01779 -0.000218568 1.69076e-005 0.000212143 0.000901581 -0.000184802 -0.000218561 -59.9282 75.5373 58.5147 -12.9654 -0.954476 2.21302 -167.277 84.4999 48.8109 171.656 -8.16729 31.2642 6.80331e-006 0.233202 2.9217e-005 -1.39191 13.9155 -0.21146 -8.52946e-006 20.9041 4.06021e-006 -0.0457891 0.00115154 -2.88024 -72.0648 39.0385 39.3397 33.3638 2.10361 14.835 0.588946 0.308273 6.35287 -99.6409 81.413 100.35 -0.0181409 3.00606e-005 -0.117315 -0.124139 0.00241111 -0.799296 -79.8382 79.5773 80.5374 -0.00026064 -0.000218584 2.35728e-005 -0.000956218 0.000122973 -2.73175e-005 -66.7416 80.4058 67.2171 -0.000437126 1.48637e-005 -2.73192e-005 -0.000136595 -0.000109307 -5.46394e-005 -6.42159 81.2158 8.01779 -0.00021856 1.95606e-005 0.000212295 0.000901591 -0.00019127 -0.000218569 0.000811311 0.56661 89.91 -19.3003 -2.73064 -7.19527 8.32477e-008 0.0637464 2.45494e-010 39.6453 -1.35181 -0.249932 -6.89543e-008 -2.10235 -6.11012e-008 -75.8229 -4.19086 0.721284 -35.4947 2.074e-005 -8.02065e-007 -180 -0.566579 -90.09 -19.5401 -5.42143 -11.8963 -3.97264e-007 -1.34807 -9.55397e-009 35.7881 -2.24127 -1.58662 2.94893e-007 -3.4309 -2.42105e-007 -67.3076 -8.39548 3.69265 -35.4947 1.27399e-007 9.24683e-008 
